<?xml version="1.0" encoding="iso-8859-1"?>
<!-- Generator: Adobe Illustrator 19.0.0, SVG Export Plug-In . SVG Version: 6.00 Build 0)  -->
<svg version="1.1" id="Capa_1" xmlns="http://www.w3.org/2000/svg" xmlns:xlink="http://www.w3.org/1999/xlink" x="0px" y="0px"
	 viewBox="0 0 485.494 485.494" style="enable-background:new 0 0 485.494 485.494;" xml:space="preserve">
<g>
	<g>
		<g>
			<path style="fill:#010002;" d="M267.284,198.106h11.001V54.962C278.285,24.72,253.5,0,223.279,0H62.965
				C32.723,0,8.003,24.72,8.003,54.962v160.292c0,30.264,24.72,54.984,54.962,54.984h127.591
				c1.23-18.637,8.801-36.088,22.239-49.483C227.334,206.13,246.705,198.106,267.284,198.106z M53.862,160.896v-51.576h101.879
				V73.902l76.102,61.218l-76.123,61.218v-35.441H53.862z"/>
			<path style="fill:#010002;" d="M422.507,215.233H262.193c-30.221,0-54.962,24.72-54.962,54.984v160.314
				c0,30.199,24.72,54.962,54.962,54.962h160.314c30.199,0,54.984-24.742,54.984-54.962V270.217
				C477.469,239.975,452.728,215.233,422.507,215.233z M431.61,376.173H329.731v35.419l-76.123-61.196l76.123-61.196v35.419H431.61
				V376.173z"/>
		</g>
	</g>	
</g>
</svg>
